<svg width="286" height="55" viewBox="0 0 286 55" fill="none" xmlns="http://www.w3.org/2000/svg">
<path d="M62.3433 46.8377V29.0225H66.064V36.2668H73.4316V29.0225H77.1277V46.8377H73.4316V38.7063H66.064V46.8377H62.3433Z" fill="black"/>
<path d="M80.9538 46.8377V29.0225H92.0914V31.4619H84.6746V36.4393H90.7608V38.8295H84.6746V44.2997H92.6582V46.8377H80.9538Z" fill="black"/>
<path d="M96.1633 46.8377V29.0225H102.841C106.463 29.0225 108.262 30.5009 108.262 33.4578C108.262 34.542 107.966 35.5522 107.35 36.4393C106.734 37.351 105.896 38.041 104.812 38.5338L110.627 46.8377H106.118L101.708 39.5687H99.6623V46.8377H96.1633ZM99.6623 37.1046H100.525C103.211 37.1046 104.541 36.0204 104.541 33.852C104.541 32.275 103.358 31.4619 100.944 31.4619H99.6623V37.1046Z" fill="black"/>
<path d="M112.959 46.8377V29.0225H120.622C123.382 29.0225 125.501 29.7617 126.979 31.2155C128.433 32.6939 129.172 34.813 129.172 37.5728C129.172 40.505 128.384 42.772 126.831 44.3983C125.279 46.0246 123.111 46.8377 120.302 46.8377H112.959ZM116.679 44.2997H119.439C121.386 44.2997 122.84 43.7822 123.801 42.6981C124.762 41.6139 125.23 39.9876 125.23 37.7699C125.23 36.0697 124.86 34.6652 124.096 33.5317C123.554 32.7432 122.913 32.2258 122.174 31.9301C121.435 31.6097 120.326 31.4619 118.922 31.4619H116.679V44.2997Z" fill="black"/>
<path d="M146.759 46.9076C144.128 46.9076 142.004 46.087 140.411 44.4216C138.818 42.7562 138.022 40.5357 138.022 37.7601C138.022 34.9362 138.818 32.7156 140.435 31.0744C142.028 29.409 144.177 28.5884 146.88 28.5884C149.583 28.5884 151.731 29.409 153.324 31.0744C154.917 32.7156 155.714 34.9362 155.714 37.7118C155.714 40.5599 154.917 42.8045 153.324 44.4458C151.731 46.087 149.535 46.9076 146.759 46.9076ZM146.807 44.494C148.376 44.494 149.607 43.8906 150.5 42.6838C151.417 41.4529 151.876 39.7875 151.876 37.7118C151.876 35.6844 151.417 34.0431 150.5 32.8363C149.583 31.6054 148.376 30.9778 146.88 30.9778C145.359 30.9778 144.152 31.6054 143.235 32.8363C142.342 34.0431 141.884 35.6844 141.884 37.7359C141.884 39.7634 142.342 41.4046 143.235 42.6597C144.152 43.8906 145.335 44.494 146.807 44.494Z" fill="black"/>
<path d="M159.203 46.4733V29.0229H170.185V31.4124H162.847V36.7223H168.881V39.136H162.847V46.4733H159.203Z" fill="black"/>
<path d="M178.56 46.8783V44.359L187.34 31.6162H179.049V29.1948H191.621V31.6162L182.84 44.359H191.621V46.8783H178.56Z" fill="black"/>
<path d="M195.263 46.8783V29.1948H206.319V31.6162H198.957V36.5568H204.998V38.9293H198.957V44.359H206.881V46.8783H195.263Z" fill="black"/>
<path d="M210.19 46.8783V29.1948H216.206C217.992 29.1948 219.337 29.5372 220.266 30.1976C221.196 30.8825 221.661 31.8608 221.661 33.1326C221.661 35.2605 220.242 36.7525 217.405 37.6574C220.707 38.4401 222.37 40.0788 222.37 42.5002C222.37 43.9188 221.881 44.995 220.927 45.7532C219.949 46.5114 218.554 46.8783 216.744 46.8783H210.19ZM213.663 36.5568H214.543C215.57 36.5568 216.402 36.3122 216.989 35.7986C217.601 35.285 217.918 34.6001 217.918 33.7196C217.918 32.9125 217.674 32.35 217.185 32.0565C216.696 31.763 215.766 31.6162 214.396 31.6162H213.663V36.5568ZM213.663 44.359H214.445C215.986 44.359 217.062 44.2123 217.649 43.8699C218.236 43.5519 218.53 42.9405 218.53 42.06C218.53 41.155 218.139 40.4212 217.356 39.8098C216.573 39.2228 215.57 38.9293 214.372 38.9293H213.663V44.359Z" fill="black"/>
<path d="M225.021 46.8783V29.1948H231.649C235.244 29.1948 237.03 30.6623 237.03 33.5973C237.03 34.6735 236.736 35.6763 236.125 36.5568C235.513 37.4618 234.682 38.1466 233.605 38.6358L239.378 46.8783H234.902L230.524 39.663H228.494V46.8783H225.021ZM228.494 37.2172H229.35C232.016 37.2172 233.336 36.141 233.336 33.9887C233.336 32.4233 232.162 31.6162 229.766 31.6162H228.494V37.2172Z" fill="black"/>
<path d="M239.769 46.8783L246.642 29.1948H250.335L257.208 46.8783H253.441L251.607 42.1578H244.294L242.459 46.8783H239.769ZM245.199 39.8098H250.702L247.938 32.7658L245.199 39.8098Z" fill="black"/>
<path d="M258.794 46.7313V43.6985C260.702 44.4812 262.316 44.8725 263.686 44.8725C264.615 44.8725 265.374 44.6768 265.912 44.261C266.45 43.8208 266.743 43.2582 266.743 42.5245C266.743 41.9619 266.572 41.4728 266.23 41.0814C265.887 40.6901 265.227 40.2254 264.273 39.6873L263.099 39.0269C261.509 38.122 260.384 37.2659 259.724 36.4588C259.088 35.6517 258.745 34.6978 258.745 33.5972C258.745 32.1297 259.284 30.9801 260.36 30.0751C261.436 29.1946 262.854 28.7544 264.615 28.7544C266.01 28.7544 267.599 28.9745 269.36 29.3659V32.203C267.575 31.5182 266.132 31.1758 265.08 31.1758C264.273 31.1758 263.613 31.3714 263.124 31.7383C262.634 32.0807 262.39 32.5699 262.39 33.1569C262.39 33.6461 262.561 34.0619 262.903 34.4287C263.246 34.7956 263.906 35.2603 264.836 35.774L266.107 36.4833C267.82 37.4371 268.994 38.3176 269.629 39.1248C270.29 39.9319 270.608 40.9102 270.608 42.0598C270.608 43.6985 269.996 44.9948 268.773 45.9242C267.55 46.8536 265.887 47.3183 263.735 47.3183C262.316 47.3183 260.678 47.1227 258.794 46.7313Z" fill="black"/>
<path d="M277.062 46.8386V42.0785H275.251V41.25H279.814V42.0785H277.989V46.8386H277.062ZM280.432 46.8386V41.25H281.808L283.227 45.7152L284.589 41.25H285.937V46.8386H285.08V42.1487L283.648 46.8386H282.791L281.303 42.0785V46.8386H280.432Z" fill="black"/>
<path fill-rule="evenodd" clip-rule="evenodd" d="M24.24 54.0137C20.1613 51.2167 16.3484 48.0061 13.0612 44.3037C10.0975 40.9657 7.58285 37.2379 5.64118 33.2169C3.64427 29.0812 2.26097 24.6684 1.41439 20.1581C0.403334 14.7706 0.139617 9.26187 0.363284 3.79159C8.31642 1.27601 16.6434 0.0223327 24.9853 0.142122C32.8218 0.25476 40.6101 1.56279 48.1166 3.79159C49.1207 28.3447 39.827 43.3252 24.2399 54.0137H24.24Z" fill="black"/>
<path fill-rule="evenodd" clip-rule="evenodd" d="M26.1476 49.4594V23.0439H29.7623V46.6162C28.6099 47.6014 27.4041 48.5477 26.1476 49.4594ZM18.7136 46.6118V23.0439H22.3277V49.4558C21.086 48.5541 19.8783 47.6073 18.7136 46.6118ZM33.5822 23.0439H44.2977C42.4014 31.0904 38.7069 37.5825 33.5822 42.9947V23.0439ZM14.8938 23.0439V42.9905C14.6599 42.7436 14.4293 42.4946 14.2013 42.243C11.54 39.3042 9.28206 36.0224 7.53832 32.4823C6.05615 29.4729 4.95051 26.297 4.1826 23.0439H14.8938Z" fill="white" stroke="black" stroke-width="5.95969e-05" stroke-miterlimit="1.5" stroke-linecap="round" stroke-linejoin="round"/>
<path fill-rule="evenodd" clip-rule="evenodd" d="M45.0389 19.2505C44.924 19.9835 44.7954 20.7044 44.6535 21.4122H3.82646C3.79785 21.2701 3.76996 21.1276 3.74279 20.9851C3.63229 20.4083 3.53182 19.8299 3.44081 19.2505H45.0389Z" fill="white"/>
<path fill-rule="evenodd" clip-rule="evenodd" d="M21.4877 19.2505V21.4122H3.82646C3.79785 21.2701 3.76996 21.1276 3.74279 20.9851C3.63229 20.4083 3.53182 19.8299 3.44081 19.2505H21.4877Z" fill="#FBDB06"/>
<path fill-rule="evenodd" clip-rule="evenodd" d="M26.9949 19.2505V21.4122H44.6561C44.6848 21.2701 44.7126 21.1276 44.7398 20.9851C44.8503 20.4083 44.9508 19.8299 45.0418 19.2505H26.9949Z" fill="#E60600"/>
<path d="M6.03886 17.5822V5.75517C6.90022 5.52326 7.72844 5.34105 8.54011 5.15884V10.5257H13.4929V4.23123C14.288 4.11528 15.1162 3.99933 15.9776 3.9165V17.5822H13.4929V12.1656H8.54011V17.5822H6.03886Z" fill="white"/>
<path d="M24.1824 17.5829C22.3769 17.5829 20.9192 17.0197 19.8259 15.8768C18.7327 14.7173 18.1861 12.3982 18.1861 10.4933C18.1861 8.55526 18.7327 6.18654 19.8425 5.06015C20.9358 3.9172 22.41 3.354 24.2652 3.354C26.1205 3.354 27.5947 3.9172 28.688 5.06015C29.7812 6.18654 30.3278 8.55526 30.3278 10.4602C30.3278 12.4148 29.7812 14.767 28.688 15.8933C27.5947 17.0197 26.0873 17.5829 24.1824 17.5829ZM24.2155 15.9265C25.2922 15.9265 26.137 15.5124 26.7499 14.6676C27.3794 13.8393 27.6941 11.8847 27.6941 10.4602C27.6941 9.06876 27.3794 7.09758 26.7499 6.25279C26.1205 5.408 25.2922 4.99389 24.2652 4.99389C23.2217 4.99389 22.3934 5.408 21.764 6.25279C21.1511 7.09758 20.8364 9.06876 20.8364 10.4767C20.8364 11.8682 21.1511 13.8062 21.764 14.6676C22.3934 15.5124 23.2051 15.9265 24.2155 15.9265Z" fill="white"/>
<path d="M31.812 17.6086V15.9025L38.9844 6.99074C36.1519 6.42755 33.866 6.06313 32.1432 5.88092V3.94287C35.042 4.27416 38.239 4.85392 41.701 5.63245V7.27234L34.7107 15.9025H41.701V17.6086H31.812Z" fill="white"/>
</svg>
